<?xml version="1.0" encoding="UTF-8"?>
<svg id="Layer_2" data-name="Layer 2" xmlns="http://www.w3.org/2000/svg" viewBox="0 0 29.52 32">
  <defs>
    <style>
      .cls-1 {
        fill: #61398f;
        stroke-width: 0px;
      }
    </style>
  </defs>
  <g id="Layer_1-2" data-name="Layer 1">
    <g>
      <path class="cls-1" d="m2.85,20.76s-.02-.03-.03-.04l-.02.05.03.04s.01-.03.02-.05Z"/>
      <path class="cls-1" d="m2.92,22.77l.03.04s.01-.03.02-.05c-.01-.01-.02-.03-.03-.04l-.02.05Z"/>
      <path class="cls-1" d="m3.17,22.11l.03.04s.01-.03.02-.05c-.01-.01-.02-.03-.03-.04l-.02.05Z"/>
      <path class="cls-1" d="m3.16,22.39s.01-.03.02-.05c-.01-.01-.02-.03-.03-.04,0,.02-.01.03-.02.05.01.01.02.03.03.04Z"/>
      <path class="cls-1" d="m2.99,22.71s-.01.03-.02.05c.01.01.02.03.03.04v-.02s.01-.02.02-.03c0,0-.01-.01-.02-.02l-.02-.02Z"/>
      <polygon class="cls-1" points="3.09 22.18 3.13 22.22 3.17 22.11 3.13 22.06 3.09 22.18"/>
      <path class="cls-1" d="m3.24,22.05s-.01.03-.02.05c.01.01.02.03.03.04v-.02s.01-.02.02-.03c0,0-.01-.01-.02-.02l-.02-.02Z"/>
      <polygon class="cls-1" points="3.31 21.5 3.36 21.55 3.4 21.44 3.35 21.39 3.31 21.5"/>
      <path class="cls-1" d="m3.4,21.44l.03.04s.01-.03.02-.05c-.01-.01-.02-.03-.03-.04l-.02.05Z"/>
      <path class="cls-1" d="m3.4,21.73s.01-.03.02-.05c-.01-.01-.02-.03-.03-.04,0,.02-.01.03-.02.05.01.01.02.03.03.04Z"/>
      <path class="cls-1" d="m3.38,21.64s.01-.03.02-.05l-.03-.04-.02.05s.02.03.03.04Z"/>
      <path class="cls-1" d="m2.51,21.29s-.01.03-.02.05l.04.04.02-.05s-.02-.03-.04-.04Z"/>
      <path class="cls-1" d="m3.47,21.39s-.01.03-.02.05c.01.01.02.03.03.04v-.02s.01-.02.02-.03c0,0-.01-.01-.02-.02l-.02-.02Z"/>
      <path class="cls-1" d="m2.49,21.2s-.01.03-.02.05c.01.01.02.03.04.04,0-.02.01-.03.02-.05-.01-.01-.02-.03-.04-.04Z"/>
      <path class="cls-1" d="m2.64,20.89s.01-.03.02-.05c-.01-.01-.02-.03-.03-.04v.02s-.01.02-.02.03c0,0,.01.01.02.02l.02.02Z"/>
      <path class="cls-1" d="m2.71,20.83l-.04-.04s-.01.03-.02.05c.01.01.02.03.04.04l.02-.05Z"/>
      <polygon class="cls-1" points="2.8 20.77 2.75 20.72 2.71 20.83 2.76 20.88 2.8 20.77"/>
      <path class="cls-1" d="m2.89,22.66s-.01.03-.02.05l.04.04.02-.05s-.02-.03-.04-.04Z"/>
      <path class="cls-1" d="m2.87,22.57s-.01.03-.02.05c.01.01.02.03.04.04,0-.02.01-.03.02-.05-.01-.01-.02-.03-.04-.04Z"/>
      <polygon class="cls-1" points="2.53 21.38 2.49 21.49 2.52 21.52 2.56 21.42 2.53 21.38"/>
      <path class="cls-1" d="m2.55,21.7c-.04.12-.09.24-.13.35.15.17.3.35.45.52.04-.12.08-.24.12-.37-.15-.17-.29-.33-.44-.5Z"/>
      <path class="cls-1" d="m2.52,21.52l-.02.05s.02.03.03.04c0-.02.01-.03.02-.05l-.03-.04Z"/>
      <path class="cls-1" d="m2.53,21.61s-.01.03-.02.05c.01.01.02.03.03.04,0-.02.01-.03.02-.05-.01-.01-.02-.03-.03-.04Z"/>
      <path class="cls-1" d="m3.14,22.3s.01-.03.02-.05l-.03-.04-.02.05s.02.03.03.04Z"/>
      <path class="cls-1" d="m2.05,20.78s-.02-.03-.03-.04l-.02.05.03.04s.01-.03.02-.05Z"/>
      <path class="cls-1" d="m2.09,20.79s0-.02,0-.03c0,0-.01-.01-.02-.02l-.02-.02s-.01.03-.02.05c.01.01.02.03.03.04v-.02Z"/>
      <path class="cls-1" d="m2.61,20.85c-.13-.14-.25-.28-.38-.42-.04.12-.09.23-.13.34.13.14.26.29.39.43.04-.12.08-.23.12-.35Z"/>
      <path class="cls-1" d="m2.21,20.34s-.01.03-.02.05c.01.01.02.03.03.04,0-.02.01-.03.02-.05-.01-.01-.02-.03-.03-.04Z"/>
      <path class="cls-1" d="m2.2,20.25l-.02.05s.02.03.03.04c0-.02.01-.03.02-.05l-.03-.04Z"/>
      <path class="cls-1" d="m2,21.06c-.05.12-.09.24-.14.36.13.15.27.3.41.46.04-.12.08-.24.12-.37-.13-.15-.26-.3-.39-.45Z"/>
      <path class="cls-1" d="m1.96,20.88l-.02.05s.02.03.03.04c0-.02.01-.03.02-.05l-.03-.04Z"/>
      <path class="cls-1" d="m2.29,21.97s-.01.03-.02.05l.04.04.02-.05s-.02-.03-.04-.04Z"/>
      <path class="cls-1" d="m2.27,21.88s-.01.03-.02.05c.01.01.02.03.04.04,0-.02.01-.03.02-.05-.01-.01-.02-.03-.04-.04Z"/>
      <path class="cls-1" d="m2.29,20.15s-.02-.03-.03-.04l-.02.05.03.04s.01-.03.02-.05Z"/>
      <path class="cls-1" d="m1.98,20.97s-.01.03-.02.05c.01.01.02.03.03.04,0-.02.01-.03.02-.05-.01-.01-.02-.03-.03-.04Z"/>
      <path class="cls-1" d="m3.48,20.84s.01-.03.02-.05c-.01-.01-.02-.03-.04-.04v.02s-.01.02-.02.03c0,0,.01.01.02.02l.02.02Z"/>
      <path class="cls-1" d="m3.31,21.21c.04-.14.09-.27.14-.41-.13-.15-.27-.29-.4-.44-.05.13-.1.27-.14.4.14.15.27.3.41.46Z"/>
      <path class="cls-1" d="m3.65,21.02s.01-.03.02-.05c-.01-.01-.02-.03-.03-.04,0,.02-.01.03-.02.05.01.01.02.02.03.04Z"/>
      <path class="cls-1" d="m3.55,20.77l-.04-.04s-.01.03-.02.05c.01.01.02.03.04.04l.02-.05Z"/>
      <path class="cls-1" d="m3.04,20.36s.01-.03.02-.05c-.01-.01-.02-.03-.03-.04,0,.02-.01.03-.02.05.01.01.02.03.03.04Z"/>
      <path class="cls-1" d="m3.63,20.93s.01-.03.02-.05l-.03-.04-.02.05s.02.03.03.04Z"/>
      <path class="cls-1" d="m3.03,20.27s.01-.03.02-.05l-.03-.04-.02.05s.02.03.03.04Z"/>
      <path class="cls-1" d="m2.88,20.18s.01-.03.02-.05c-.01-.01-.02-.03-.04-.04v.02s-.01.02-.02.03c0,0,.01.01.02.02l.02.02Z"/>
      <path class="cls-1" d="m2.33,20.16s0-.02,0-.03c0,0-.01-.01-.02-.02l-.02-.02s-.01.03-.02.05c.01.01.02.03.03.04v-.02Z"/>
      <path class="cls-1" d="m2.85,20.14c-.12-.13-.24-.27-.36-.4-.05.13-.1.27-.15.4.12.13.25.27.37.41.04-.13.09-.27.14-.41Z"/>
      <path class="cls-1" d="m2.95,20.11l-.04-.04s-.01.03-.02.05c.01.01.02.03.04.04l.02-.05Z"/>
      <path class="cls-1" d="m3,22.17s0,.02,0,.02c0,0,.01.01.02.02l.02.02s.01-.03.02-.05c-.01-.01-.02-.03-.04-.04v.03Z"/>
      <path class="cls-1" d="m1.75,21.44l.03.04s.01-.03.02-.05c-.01-.01-.02-.03-.03-.04l-.02.05Z"/>
      <path class="cls-1" d="m1.82,21.38s-.01.03-.02.05c.01.01.02.03.03.04v-.02s.02-.02.02-.03c0,0-.01-.01-.02-.02l-.02-.02Z"/>
      <path class="cls-1" d="m2.45,19.56l-.02.05s.02.03.03.04c0-.02.01-.03.02-.05l-.03-.04Z"/>
      <path class="cls-1" d="m2.4,19.31s-.01.03-.02.05l.04.04.02-.05s-.02-.03-.04-.04Z"/>
      <path class="cls-1" d="m2.89,20.78s0-.02,0-.03c0,0-.01-.01-.02-.02l-.02-.02s-.01.03-.02.05c.01.01.02.03.03.04v-.02Z"/>
      <path class="cls-1" d="m2.47,19.65s-.01.03-.02.05c.01.01.02.03.03.04,0-.02.01-.03.02-.05-.01-.01-.02-.03-.03-.04Z"/>
      <path class="cls-1" d="m4.85,12.17c.31-.87.65-1.86,1.02-2.91.87-2.5,1.84-5.32,2.67-7.38-.11.06-.22.12-.34.17-2.55,1.37-4.55,3.27-6.01,5.7C.73,10.19,0,12.94,0,16c0,.28,0,.56.02.83l.03-.03c.63.62,1.4,1.41,2.34,2.42.45-1.34.96-2.76,1.44-4.14.38-1.07.73-2.08,1.02-2.92Z"/>
      <path class="cls-1" d="m2.95,19.83s-.01.03-.02.05c.01.01.02.03.04.04,0-.02.01-.03.02-.05-.01-.01-.02-.03-.04-.04Z"/>
      <path class="cls-1" d="m2.97,19.92s-.01.03-.02.05l.04.04.02-.05s-.02-.03-.04-.04Z"/>
      <path class="cls-1" d="m3.12,20.02s-.01.03-.02.05c.01.01.02.03.03.04v-.02s.01-.02.02-.03c0,0-.01-.01-.02-.02l-.02-.02Z"/>
      <path class="cls-1" d="m3.05,20.08l.03.04s.01-.03.02-.05c-.01-.01-.02-.03-.03-.04l-.02.05Z"/>
      <polygon class="cls-1" points="3.05 20.08 2.99 20.01 2.95 20.11 3.01 20.18 3.05 20.08"/>
      <path class="cls-1" d="m1.31,22.55l.18-.58c.04-.14.09-.28.13-.43-.46-.55-.83-1.02-1.14-1.43.21.84.49,1.66.83,2.44Z"/>
      <path class="cls-1" d="m3.85,23.71c.47.55.92,1.07,1.31,1.52.38.45.82.96,1.29,1.49,1.13,1.3,2.41,2.77,3.27,3.92l-.03.02c.4.17.81.32,1.23.46l-.19-.2c-1.02-1.04-2.42-2.64-3.65-4.05-.56-.64-1.09-1.25-1.53-1.75-.46-.53-.99-1.14-1.56-1.77l-.28-.32c-.05.13-.09.25-.13.37l.28.32Z"/>
      <path class="cls-1" d="m4.21,23.17c.56.64,1.08,1.24,1.55,1.76.44.51.97,1.11,1.54,1.75,1.24,1.4,2.64,2.98,3.54,4.14l.28.36c.4.12.8.24,1.21.33l-.37-.38c-1.14-1.14-2.71-2.9-4.09-4.44-.63-.7-1.22-1.37-1.72-1.91-.52-.58-1.11-1.24-1.75-1.94l-.45-.49c-.04.13-.09.25-.13.38l.39.45Z"/>
      <path class="cls-1" d="m1.63,21.52s0,.02,0,.02c0,0,.01.01.02.02l.02.02s.01-.03.02-.05c-.01-.01-.02-.03-.03-.04v.03Z"/>
      <path class="cls-1" d="m4.61,22.66c.63.7,1.22,1.36,1.74,1.93.5.56,1.1,1.22,1.73,1.92,1.39,1.53,2.96,3.27,3.99,4.53l.37.44-.04.04c.4.09.8.17,1.21.24l-.33-.33c-1.26-1.26-3.02-3.19-4.56-4.89-.7-.77-1.37-1.5-1.93-2.1-.58-.64-1.25-1.37-1.96-2.14-.2-.22-.41-.44-.62-.67-.05.14-.1.28-.15.42.19.21.37.41.55.62Z"/>
      <path class="cls-1" d="m.02,16.92c.02.32.04.63.07.94l.04-.03c.55.54,1.21,1.23,2.01,2.11.05-.14.09-.27.14-.41-.95-1.05-1.69-1.9-2.26-2.6Z"/>
      <path class="cls-1" d="m.1,17.93c.03.28.07.56.11.83h0c.47.47,1.04,1.07,1.71,1.82.04-.12.08-.24.12-.36-.81-.92-1.45-1.67-1.95-2.29Z"/>
      <path class="cls-1" d="m.24,18.93c.06.35.13.69.21,1.03l.02-.02c.36.35.76.78,1.24,1.31.04-.13.08-.25.12-.38-.66-.77-1.18-1.4-1.6-1.94Z"/>
      <polygon class="cls-1" points="1.72 21.52 1.72 21.52 1.74 21.48 1.72 21.52"/>
      <path class="cls-1" d="m1.67,21.53s.02.02.03.04l.02-.05-.03-.04s-.01.03-.02.05Z"/>
      <path class="cls-1" d="m2.38,19.22s-.01.03-.02.05c.01.01.02.03.04.04,0-.02.01-.03.02-.05-.01-.01-.02-.03-.04-.04Z"/>
      <path class="cls-1" d="m2.76,20.88l-.02.05s.02.03.03.04c0-.02.01-.03.02-.05l-.03-.04Z"/>
      <path class="cls-1" d="m3.13,22.06l.02-.05s-.02-.03-.04-.04c0,.02-.01.03-.02.05l.04.04Z"/>
      <path class="cls-1" d="m2.63,21.36s-.01.03-.02.05c.01.01.02.03.03.04v-.02s.01-.02.02-.03c0,0-.01-.01-.02-.02l-.02-.02Z"/>
      <path class="cls-1" d="m3.11,21.97s.01-.03.02-.05c-.01-.01-.02-.03-.03-.04,0,.02-.01.03-.02.05.01.01.02.03.03.04Z"/>
      <path class="cls-1" d="m2.56,21.42l.03.04s.01-.03.02-.05c-.01-.01-.02-.03-.03-.04l-.02.05Z"/>
      <path class="cls-1" d="m2.9,22.97s.01-.03.02-.05l-.03-.04-.02.05s.02.03.03.04Z"/>
      <path class="cls-1" d="m3.35,21.39l.02-.05s-.02-.03-.04-.04c0,.02-.01.03-.02.05l.04.04Z"/>
      <path class="cls-1" d="m3.33,21.3s.01-.03.02-.05c-.01-.01-.02-.03-.04-.04,0,.02-.01.03-.02.05.01.01.02.03.04.04Z"/>
      <path class="cls-1" d="m3.22,21.49s0,.02,0,.03c0,0,.01.01.02.02l.02.02s.01-.03.02-.05c-.01-.01-.02-.03-.04-.04v.02Z"/>
      <path class="cls-1" d="m2.77,20.96s-.01.03-.02.05c.01.01.02.03.03.04,0-.02.01-.03.02-.05-.01-.01-.02-.03-.03-.04Z"/>
      <path class="cls-1" d="m3.26,21.51s.02.03.04.04l.02-.05-.04-.04s-.01.03-.02.05Z"/>
      <path class="cls-1" d="m2.66,21.4c.14.16.29.32.43.49.04-.12.08-.24.12-.36-.14-.16-.28-.31-.42-.47-.04.12-.09.23-.13.34Z"/>
      <path class="cls-1" d="m2.38,22.01s-.01.03-.02.05c.01.01.02.03.03.04v-.02s.02-.02.02-.03c0,0-.01-.01-.02-.02l-.02-.02Z"/>
      <path class="cls-1" d="m2.4,21.49s0,.02,0,.02c0,0,.01.01.02.02l.02.02s.01-.03.02-.05c-.01-.01-.02-.03-.03-.04v.03Z"/>
      <path class="cls-1" d="m2.31,22.07l.03.04s.01-.03.02-.05c-.01-.01-.02-.03-.03-.04l-.02.05Z"/>
      <path class="cls-1" d="m2.82,22.88s.02.03.04.04l.02-.05-.04-.04s-.01.03-.02.05Z"/>
      <polygon class="cls-1" points="2.87 22.87 2.88 22.88 2.92 22.77 2.91 22.75 2.87 22.87"/>
      <path class="cls-1" d="m3.04,22.19s.02.03.04.04l.02-.05-.04-.04s-.01.03-.02.05Z"/>
      <polygon class="cls-1" points="2.31 22.07 2.31 22.06 2.27 22.17 2.27 22.17 2.31 22.07"/>
      <path class="cls-1" d="m2.44,21.5s.02.03.03.04l.02-.05-.03-.04s-.01.03-.02.05Z"/>
      <path class="cls-1" d="m2.73,20.63s-.01.03-.02.05l.04.04.02-.05s-.02-.03-.04-.04Z"/>
      <path class="cls-1" d="m2.71,20.54s-.01.03-.02.05c.01.01.02.03.04.04,0-.02.01-.03.02-.05-.01-.01-.02-.03-.04-.04Z"/>
      <path class="cls-1" d="m3.95,22.34s.01-.03.02-.05c-.01-.01-.02-.03-.03-.04,0,.02-.01.03-.02.05l.03.04Z"/>
      <path class="cls-1" d="m1.94,20.85l-.03-.04s-.01.03-.02.05c.01.01.02.03.03.04l.02-.05Z"/>
      <path class="cls-1" d="m1.87,20.91s.01-.03.02-.05c-.01-.01-.02-.03-.03-.04v.03s-.01.02-.02.02c0,0,.01.01.02.02l.02.02Z"/>
      <polygon class="cls-1" points="2 20.79 1.97 20.76 1.94 20.85 1.96 20.88 2 20.79"/>
      <path class="cls-1" d="m1.95,20.67s-.01.03-.02.05l.04.04.02-.05s-.02-.03-.04-.04Z"/>
      <path class="cls-1" d="m1.93,20.58s-.01.03-.02.05c.01.01.02.03.04.04,0-.02.01-.03.02-.05-.01-.01-.02-.03-.04-.04Z"/>
      <polygon class="cls-1" points="1.75 21.43 1.74 21.48 1.75 21.44 1.75 21.43"/>
      <path class="cls-1" d="m2.08,20.26s.01-.03.02-.05c-.01-.01-.02-.03-.03-.04v.03s-.01.02-.02.02c0,0,.01.01.02.02l.02.02Z"/>
      <path class="cls-1" d="m1.72,21.52l-.02.05s.02.02.03.03c0-.02.01-.03.02-.05l-.03-.04Z"/>
      <path class="cls-1" d="m1.73,21.34s-.01.03-.02.05l.04.04.02-.05s-.02-.03-.04-.04Z"/>
      <path class="cls-1" d="m1.71,21.25s-.01.03-.02.05c.01.01.02.03.04.04,0-.02.01-.03.02-.05-.01-.01-.02-.03-.04-.04Z"/>
      <path class="cls-1" d="m4.47,15.47c.4-1.12.77-2.18,1.08-3.07.33-.91.69-1.95,1.07-3.06.93-2.67,1.98-5.7,2.86-7.88l.09.03c-.67,2.24-1.74,5.27-2.68,7.95-.39,1.1-.75,2.14-1.07,3.05-.32.89-.69,1.95-1.08,3.08-.52,1.5-1.06,3.05-1.57,4.48.13.14.27.29.4.43.49-1.46,1.02-3.01,1.54-4.5.41-1.19.8-2.32,1.12-3.26.34-.97.71-2.08,1.11-3.25.96-2.83,2.05-6.03,2.95-8.35-.55.2-1.08.44-1.6.7-.63,2.13-1.64,5-2.54,7.54-.37,1.05-.72,2.03-1.01,2.9-.3.84-.65,1.86-1.02,2.93-.49,1.42-1,2.89-1.49,4.25.12.13.24.26.36.39.48-1.41,1.01-2.91,1.52-4.36Z"/>
      <polygon class="cls-1" points="2.48 19.47 2.42 19.4 2.39 19.5 2.45 19.56 2.48 19.47"/>
      <path class="cls-1" d="m2.54,19.46s-.02-.03-.03-.04l-.02.05.03.04s.01-.03.02-.05Z"/>
      <path class="cls-1" d="m2.39,19.5l-.03-.04s-.01.03-.02.05c.01.01.02.03.03.04l.02-.05Z"/>
      <path class="cls-1" d="m2.58,19.47s0-.02,0-.03c0,0-.01-.01-.02-.02l-.02-.02s-.01.03-.02.05c.01.01.02.03.03.04v-.02Z"/>
      <path class="cls-1" d="m1.74,21.6s-.01.03-.02.05c.01.01.02.03.03.04,0-.02.01-.03.02-.05-.01-.01-.02-.03-.03-.04Z"/>
      <path class="cls-1" d="m2.32,19.56s.01-.03.02-.05c-.01-.01-.02-.03-.03-.04v.02s-.01.02-.02.03c0,0,.01.01.02.02l.02.02Z"/>
      <path class="cls-1" d="m2.17,20.01s-.01.03-.02.05l.04.04.02-.05s-.02-.03-.04-.04Z"/>
      <path class="cls-1" d="m2.15,20.2l-.03-.04s-.01.03-.02.05c.01.01.02.03.03.04l.02-.05Z"/>
      <polygon class="cls-1" points="2.23 20.16 2.18 20.1 2.15 20.2 2.2 20.25 2.23 20.16"/>
      <path class="cls-1" d="m2.15,19.93s-.01.03-.02.05c.01.01.02.03.04.04,0-.02.01-.03.02-.05-.01-.01-.02-.03-.04-.04Z"/>
      <path class="cls-1" d="m4.27,21.28s-.01.03-.02.05c.01.01.02.03.03.04v-.02s.01-.02.02-.03c0,0-.01-.01-.02-.02l-.02-.02Z"/>
      <path class="cls-1" d="m4.2,21.62s.01-.03.02-.05c-.01-.01-.02-.03-.03-.04,0,.02-.01.03-.02.05.01.01.02.03.03.04Z"/>
      <path class="cls-1" d="m4.02,22s-.01.03-.02.05c.01.01.02.03.03.04v-.02s.01-.02.02-.03c0,0-.01-.01-.02-.02l-.02-.02Z"/>
      <polygon class="cls-1" points="3.86 22.11 3.92 22.17 3.95 22.06 3.9 22 3.86 22.11"/>
      <path class="cls-1" d="m4.19,21.53s.01-.03.02-.05l-.04-.04-.02.05s.02.03.04.04Z"/>
      <path class="cls-1" d="m3.95,22.06l.03.04s.01-.03.02-.05c-.01-.01-.02-.03-.03-.04l-.02.05Z"/>
      <path class="cls-1" d="m3.93,22.25s.01-.03.02-.05l-.03-.04-.02.05s.02.03.03.04Z"/>
      <polygon class="cls-1" points="4.1 21.38 4.17 21.45 4.21 21.34 4.14 21.27 4.1 21.38"/>
      <path class="cls-1" d="m3.57,20.58s.01-.03.02-.05c-.01-.01-.02-.03-.04-.04,0,.02-.01.03-.02.05.01.01.02.03.04.04Z"/>
      <path class="cls-1" d="m17.15,25.9c-1.92,0-3.62-.42-5.13-1.26-1.5-.84-2.67-2.01-3.51-3.51-.84-1.5-1.26-3.21-1.26-5.13s.42-3.62,1.26-5.13c.84-1.5,2.01-2.67,3.51-3.51,1.5-.84,3.21-1.26,5.13-1.26,3.09,0,5.69,1.21,7.78,3.62l4.6-4.24c-1.47-1.77-3.29-3.12-5.46-4.07-2.17-.94-4.59-1.41-7.27-1.41-2.33,0-4.49.37-6.48,1.1l.04.02c-.7,2.37-1.81,5.6-2.79,8.45-.4,1.17-.78,2.27-1.11,3.24-.33.94-.71,2.08-1.12,3.28-.52,1.54-1.06,3.14-1.59,4.63.12.13.23.25.35.38.5-1.52,1.05-3.12,1.58-4.68.43-1.24.83-2.42,1.15-3.4.35-1.01.74-2.16,1.15-3.38.99-2.96,2.12-6.31,3.05-8.72l.09.03c-.72,2.47-1.87,5.83-2.88,8.79-.42,1.22-.81,2.36-1.14,3.37-.34.98-.74,2.16-1.16,3.41-.54,1.6-1.1,3.26-1.63,4.81.25.27.49.54.73.81.7.77,1.36,1.49,1.94,2.12.55.61,1.22,1.34,1.93,2.11,1.55,1.68,3.31,3.59,4.46,4.97,0,0,.28.34.38.45.97.15,1.96.22,2.99.22,2.68,0,5.11-.47,7.29-1.41,2.18-.94,4.01-2.31,5.48-4.11l-4.6-4.24c-2.09,2.45-4.69,3.67-7.78,3.67Z"/>
      <path class="cls-1" d="m4.21,21.34l.03.04s.01-.03.02-.05c-.01-.01-.02-.03-.03-.04l-.02.05Z"/>
      <path class="cls-1" d="m3.47,23.41l.03.04s.01-.03.02-.05c-.01-.01-.02-.03-.03-.04l-.02.05Z"/>
      <path class="cls-1" d="m2.9,25.21l-.09-.03.23-.77c.08-.27.17-.57.27-.89-.13-.15-.27-.31-.4-.46-.09.24-.17.46-.25.67,0,0-.27.72-.27.72l-.09-.03.22-.74c.07-.24.15-.51.24-.79-.16-.18-.31-.36-.47-.54-.05.14-.11.27-.16.41,0,0-.26.68-.26.68l-.09-.03.22-.69c.05-.16.1-.34.16-.51-.15-.17-.29-.34-.42-.49-.04.11-.09.22-.13.33,0,0-.25.64-.25.64h-.01c.24.54.52,1.07.83,1.58,1.46,2.43,3.46,4.33,6.01,5.7.44.24.9.46,1.36.65-1-1-2.23-2.44-3.32-3.71-.46-.54-.9-1.04-1.28-1.48-.39-.46-.84-.97-1.31-1.51l-.18-.21c-.1.27-.2.53-.29.77,0,0-.28.75-.28.75Z"/>
      <polygon class="cls-1" points="3.42 23.5 3.43 23.51 3.47 23.41 3.46 23.39 3.42 23.5"/>
      <path class="cls-1" d="m3.52,23.4s.02.03.03.04v-.02s.01-.02.02-.03l-.03-.04s-.01.03-.02.05Z"/>
      <path class="cls-1" d="m3.45,23.6s.01-.03.02-.05l-.03-.04-.02.05s.02.03.03.04Z"/>
      <path class="cls-1" d="m3.77,22.73s.02.03.03.04v-.02s.01-.02.02-.03l-.03-.04s-.01.03-.02.05Z"/>
      <path class="cls-1" d="m3.47,23.69s.01-.03.02-.05c-.01-.01-.02-.03-.03-.04,0,.02-.01.03-.02.05l.03.04Z"/>
      <path class="cls-1" d="m3.71,22.73l.03.04s.01-.03.02-.05c-.01-.01-.02-.03-.03-.04l-.02.05Z"/>
      <polygon class="cls-1" points="3.64 22.8 3.68 22.84 3.71 22.73 3.68 22.69 3.64 22.8"/>
      <path class="cls-1" d="m3.71,23.02s.01-.03.02-.05c-.01-.01-.02-.03-.03-.04,0,.02-.01.03-.02.05l.03.04Z"/>
      <path class="cls-1" d="m3.69,22.93s.01-.03.02-.05l-.03-.04-.02.05s.02.03.03.04Z"/>
      <path class="cls-1" d="m2.27,22.18h0s-.03-.06-.03-.06c0,.02-.01.03-.02.05.01.01.02.03.03.04v-.03Z"/>
      <path class="cls-1" d="m3.66,22.6s.01-.03.02-.05c-.01-.01-.02-.03-.03-.04,0,.02-.01.03-.02.05.01.01.02.03.03.04Z"/>
      <path class="cls-1" d="m3.59,22.81s.02.03.04.04l.02-.05-.04-.04s-.01.03-.02.05Z"/>
      <path class="cls-1" d="m3.68,22.69l.02-.05s-.02-.03-.04-.04c0,.02-.01.03-.02.05l.04.04Z"/>
      <path class="cls-1" d="m3.55,22.8s0,.02,0,.02c0,0,.01.01.02.02l.02.02s.01-.03.02-.05c-.01-.01-.02-.03-.04-.04v.03Z"/>
      <path class="cls-1" d="m3.03,22.75c.13.15.26.3.39.45.04-.13.08-.25.12-.38-.13-.14-.25-.29-.38-.43-.04.12-.09.24-.13.36Z"/>
      <path class="cls-1" d="m3.9,22l.02-.05s-.02-.03-.04-.04c0,.02-.01.03-.02.05l.04.04Z"/>
      <path class="cls-1" d="m3.27,22.09c.12.14.25.28.37.42.04-.13.08-.25.12-.38-.12-.13-.24-.27-.36-.4-.04.12-.09.24-.13.36Z"/>
      <path class="cls-1" d="m3.81,22.12s.02.03.04.04l.02-.05-.04-.04s-.01.03-.02.05Z"/>
      <path class="cls-1" d="m3.77,22.11s0,.02,0,.03c0,0,.01.01.02.02l.02.02s.01-.03.02-.05c-.01-.01-.02-.03-.04-.04v.02Z"/>
      <path class="cls-1" d="m3.88,21.91s.01-.03.02-.05c-.01-.01-.02-.03-.04-.04,0,.02-.01.03-.02.05.01.01.02.03.04.04Z"/>
      <path class="cls-1" d="m2.29,22.26s-.01.03-.02.05c.01.01.02.03.03.04,0-.02.01-.03.02-.05-.01-.01-.02-.03-.03-.04Z"/>
      <path class="cls-1" d="m2.81,22.93s.01-.03.02-.05c-.01-.01-.02-.03-.04-.04v.03s-.01.02-.02.02c0,0,.01.01.02.02l.02.02Z"/>
      <path class="cls-1" d="m2.2,22.23s.01-.03.02-.05c-.01-.01-.02-.03-.03-.04v.03s-.01.02-.02.02c0,0,.01.01.02.02l.02.02Z"/>
      <path class="cls-1" d="m3.46,23.39l.02-.05s-.02-.03-.03-.04c0,.02-.01.03-.02.05l.03.04Z"/>
      <path class="cls-1" d="m2.26,22.22s.02.03.03.04c0-.02.01-.03.02-.05l-.03-.04h0s-.01.05-.01.05Z"/>
      <path class="cls-1" d="m3.37,23.51s.02.03.04.04l.02-.05-.04-.04s-.01.03-.02.05Z"/>
      <path class="cls-1" d="m3.33,23.49s0,.02,0,.02c0,0,.01.01.02.02l.02.02s.01-.03.02-.05c-.01-.01-.02-.03-.04-.04v.03Z"/>
      <path class="cls-1" d="m2.9,22.97s-.01.03-.02.05c.01.01.02.03.03.04,0-.02.01-.03.02-.05-.01-.01-.02-.03-.03-.04Z"/>
      <path class="cls-1" d="m3.44,23.29s.01-.03.02-.05c-.01-.01-.02-.03-.03-.04,0,.02-.01.03-.02.05.01.01.02.03.03.04Z"/>
      <path class="cls-1" d="m3.75,20.74s0-.02,0-.03c0,0-.01-.01-.02-.02l-.02-.02s-.01.03-.02.05c.01.01.02.03.03.04v-.02Z"/>
      <path class="cls-1" d="m4.05,21.39s.02.03.04.04l.02-.05-.04-.04s-.01.03-.02.05Z"/>
      <polygon class="cls-1" points="3.61 20.84 3.65 20.74 3.59 20.66 3.55 20.77 3.61 20.84"/>
      <path class="cls-1" d="m4.14,21.27l.02-.05s-.02-.03-.04-.04c0,.02-.01.03-.02.05l.04.04Z"/>
      <path class="cls-1" d="m4.12,21.18s.01-.03.02-.05c-.01-.01-.02-.03-.04-.04,0,.02-.01.03-.02.05.01.01.02.03.04.04Z"/>
      <path class="cls-1" d="m4.01,21.37s0,.02,0,.03c.01.01.03.03.04.04,0-.02.01-.03.02-.05-.01-.01-.02-.03-.04-.04v.02Z"/>
      <path class="cls-1" d="m3.51,21.42c.12.13.24.26.36.4.05-.14.09-.28.14-.42-.09-.1-.24-.27-.35-.38-.05.14-.1.27-.14.41Z"/>
      <path class="cls-1" d="m3.71,20.72s-.02-.03-.03-.04l-.02.05.03.04s.01-.03.02-.05Z"/>
      <path class="cls-1" d="m3.59,20.66l.02-.05s-.02-.03-.04-.04c0,.02-.01.03-.02.05l.04.04Z"/>
    </g>
  </g>
</svg>